<svg xmlns="http://www.w3.org/2000/svg" width="192" height="192" viewBox="-8 4 192 192">
    <defs>
        <clipPath id="clip-magnify">
            <circle cx="72" cy="72" r="50"/>
        </clipPath>
    </defs>

    <!-- Ordinary crossword -->
    <!-- Black rectangles -->
    <rect x="60" y="60" width="24" height="124"/>
    <rect x="0" y="60" width="164" height="24"/>

    <!-- White squares -->
    <!-- Vertical strip -->
    <rect x="64" y="104" width="16" height="16" fill="white"/>
    <rect x="64" y="124" width="16" height="16" fill="white"/>
    <rect x="64" y="144" width="16" height="16" fill="white"/>
    <rect x="64" y="164" width="16" height="16" fill="white"/>

    <!-- Horizontal strip -->
    <rect x="144" y="64" width="16" height="16" fill="white" />
    <rect x="124" y="64" width="16" height="16" fill="white" />
    <rect x="104" y="64" width="16" height="16" fill="white" />
    <rect x="84" y="64" width="16" height="16" fill="white" />
    <rect x="64" y="64" width="16" height="16" fill="white" />
    <rect x="44" y="64" width="16" height="16" fill="white" />
    <rect x="24" y="64" width="16" height="16" fill="white" />
    <rect x="4" y="64" width="16" height="16" fill="white" />    

    <!-- Zoomed Crossword -->
    <circle cx="72" cy="72" r="50" fill="white"/>
    <rect x="48" y="48" width="8" height="192" clip-path="url(#clip-magnify)"/>
    <rect x="88" y="48" width="8" height="192" clip-path="url(#clip-magnify)"/>
    <rect x="0" y="48" width="196" height="8" clip-path="url(#clip-magnify)"/>
    <rect x="0" y="88" width="196" height="8" clip-path="url(#clip-magnify)"/>
    <rect x="60" y="60" width="4" height="8"/>

    <!-- Shading -->
    <rect x="0" y="0" width="196" height="48" clip-path="url(#clip-magnify)" fill="grey"/>
    <rect x="0" y="96" width="48" height="192" clip-path="url(#clip-magnify)" fill="grey"/>
    <rect x="96" y="96" width="48" height="192" clip-path="url(#clip-magnify)" fill="grey"/>

    <!-- Magnifying glass -->
    <circle cx="72" cy="72" r="50" stroke-width="8" stroke="black" fill="none"/>
    <path d="M 108 112 l 2 2 l 0 4 l 48 48 l 8 -8 l -48 -48 l -4 0 l -2 -2" fill="black"/>

</svg>